<svg width="415" height="415" viewBox="0 0 415 415" fill="none" xmlns="http://www.w3.org/2000/svg">
    <g opacity="0.64">
        <path
            d="M190.517 175.232C189.389 173.279 186.571 173.279 185.443 175.232L148.174 239.766C147.046 241.718 148.455 244.16 150.711 244.16H170.15C171.197 244.16 172.163 243.602 172.687 242.695L200.236 194.992C200.76 194.086 200.76 192.969 200.236 192.062L190.517 175.232Z"
            fill="url(#paint0_linear_5174_15579)"></path>
        <path
            d="M219.588 175.232C220.715 173.279 223.533 173.279 224.661 175.232L234.381 192.062C234.904 192.969 234.904 194.086 234.381 194.992L206.831 242.695C206.308 243.602 205.341 244.16 204.295 244.16H184.855C182.6 244.16 181.191 241.718 182.319 239.766L219.588 175.232Z"
            fill="url(#paint1_linear_5174_15579)"></path>
        <path
            d="M268.519 192.062C269.043 192.969 269.043 194.086 268.519 194.992L240.969 242.695C240.446 243.602 239.48 244.16 238.433 244.16H218.993C216.738 244.16 215.329 241.718 216.457 239.766L253.726 175.232C254.854 173.279 257.672 173.279 258.799 175.232L268.519 192.062Z"
            fill="url(#paint2_linear_5174_15579)"></path>
        <path fill-rule="evenodd" clip-rule="evenodd"
            d="M200.177 91.9277C204.709 89.3115 210.291 89.3115 214.823 91.9277L303.927 143.372C308.459 145.988 311.25 150.823 311.25 156.056V258.944C311.25 264.177 308.459 269.012 303.927 271.628L214.823 323.072C210.291 325.689 204.709 325.689 200.177 323.072L111.073 271.628C106.541 269.012 103.75 264.177 103.75 258.944V156.056C103.75 150.823 106.541 145.988 111.073 143.372L200.177 91.9277ZM200.176 127.93C204.707 125.314 210.29 125.314 214.822 127.93L272.744 161.372C277.276 163.988 280.067 168.823 280.067 174.055V240.939C280.067 246.171 277.276 251.006 272.744 253.622L214.822 287.064C210.29 289.68 204.707 289.68 200.176 287.064L142.253 253.622C137.722 251.006 134.931 246.171 134.931 240.939V174.055C134.931 168.823 137.722 163.988 142.253 161.372L200.176 127.93Z"
            fill="url(#paint3_linear_5174_15579)"
            style="transform: none; transform-origin: 207.5px 207.5px;"
            transform-origin="207.5px 207.5001449584961px"></path>
    </g>
    <defs>
        <linearGradient id="paint0_linear_5174_15579" x1="147.777" y1="173.767" x2="215.374"
            y2="224.521" gradientUnits="userSpaceOnUse">
            <stop stop-color="#FCD535"></stop>
            <stop offset="1" stop-color="#FCB835"></stop>
        </linearGradient>
        <linearGradient id="paint1_linear_5174_15579" x1="181.922" y1="173.767" x2="249.519"
            y2="224.52" gradientUnits="userSpaceOnUse">
            <stop stop-color="#FCD535"></stop>
            <stop offset="1" stop-color="#FCB835"></stop>
        </linearGradient>
        <linearGradient id="paint2_linear_5174_15579" x1="216.06" y1="173.767" x2="283.657"
            y2="224.521" gradientUnits="userSpaceOnUse">
            <stop stop-color="#FCD535"></stop>
            <stop offset="1" stop-color="#FCB835"></stop>
        </linearGradient>
        <linearGradient id="paint3_linear_5174_15579" x1="103.75" y1="89.9655" x2="337.002"
            y2="295.861" gradientUnits="userSpaceOnUse">
            <stop stop-color="#FCD535"></stop>
            <stop offset="1" stop-color="#FCB835"></stop>
        </linearGradient>
    </defs>
</svg>